<?xml version="1.0" encoding="UTF-8"?>
<svg xmlns="http://www.w3.org/2000/svg" xmlns:xlink="http://www.w3.org/1999/xlink"
     width="50000" height="50000" viewBox="0 -50000 50000 50000">
<defs>
</defs>
<circle cx="0" cy="0" r="15" fill="red" stroke-width="2" stroke="black" />
<circle cx="30" cy="0" r="15" fill="yellow" stroke-width="2" stroke="black" />
<path d="M0,250 L500,250" stroke="red" stroke-width="2" fill="none" />
<path d="M0,0 l20,-7 l24,-9 l27,-11 l31,-13 l35,-15 l38,-18 l42,-21 l45,-24 l49,-28 l53,-33 l56,-38 l60,-44 l64,-50 l67,-58 l71,-66 l75,-75 l78,-85 l82,-96 l85,-107 l89,-120 l93,-134 l96,-150 l100,-166 l104,-183 l107,-201 l111,-221 l115,-241 l118,-262 l122,-284 l125,-307 l129,-331 l133,-355 l136,-379 l140,-403 l144,-428 l147,-452 l151,-476 l155,-499 l158,-522 l162,-543 l165,-563 l169,-582 l173,-600 l176,-615 l180,-629 l184,-641 l187,-650 l191,-657 l195,-662 l198,-665 l202,-665 l205,-662 l209,-657 l213,-650 l216,-641 l220,-629 l224,-615 l227,-600 l231,-582 l235,-563 l238,-543 l242,-522 l245,-499 l249,-476 l253,-452 l256,-428 l260,-403 l264,-379 l267,-355 l271,-331 l275,-307 l278,-284 l282,-262 l285,-241 l289,-221 l293,-201 l296,-183 l300,-166 l304,-150 l307,-134 l311,-120 l315,-107 l318,-96 l322,-85 l325,-75 l329,-66 l333,-58 l336,-50 l340,-44 l344,-38 l347,-33 l351,-28 l355,-24 l358,-21 l362,-18 l365,-15 l369,-13 l373,-11 l376,-9 l380,-7" stroke-width="2" stroke="green" fill="transparent" />
</svg>