<?xml version="1.0" encoding="UTF-8"?>
<svg xmlns="http://www.w3.org/2000/svg" xmlns:xlink="http://www.w3.org/1999/xlink"
     width="500" height="500" viewBox="0 -500 500 500">
<defs>
</defs>
<path d="M250,0 L250,-500" stroke-width="2" stroke="black" fill="transparent" />
<path d="M0,-250 L500,-250" stroke-width="2" stroke="black" fill="transparent" />
<path d="M26,-3 L31,-4 L35,-4 L40,-5 L45,-6 L50,-7 L54,-8 L59,-10 L64,-11 L69,-13 L73,-15 L78,-17 L83,-20 L87,-23 L92,-26 L97,-30 L102,-34 L106,-38 L111,-43 L116,-48 L121,-54 L125,-60 L130,-66 L135,-73 L139,-81 L144,-88 L149,-96 L154,-105 L158,-114 L163,-123 L168,-132 L173,-142 L177,-152 L182,-161 L187,-171 L191,-181 L196,-190 L201,-200 L206,-209 L210,-217 L215,-225 L220,-233 L225,-240 L229,-246 L234,-252 L239,-256 L243,-260 L248,-263 L253,-265 L258,-266 L262,-266 L267,-265 L272,-263 L277,-260 L281,-256 L286,-252 L291,-246 L295,-240 L300,-233 L305,-225 L310,-217 L314,-209 L319,-200 L324,-190 L329,-181 L333,-171 L338,-161 L343,-152 L347,-142 L352,-132 L357,-123 L362,-114 L366,-105 L371,-96 L376,-88 L381,-81 L385,-73 L390,-66 L395,-60 L399,-54 L404,-48 L409,-43 L414,-38 L418,-34 L423,-30 L428,-26 L433,-23 L437,-20 L442,-17 L447,-15 L451,-13 L456,-11 L461,-10 L466,-8 L470,-7 L475,-6 L480,-5 L485,-4 L489,-4 L494,-3" stroke-width="2" stroke="black" fill="transparent" />
<circle cx="125" cy="-60" r="15" fill="red" stroke-width="2" stroke="black" />
<circle cx="253" cy="-265" r="15" fill="YELLOW" stroke-width="2" stroke="black" />
<circle cx="347" cy="-142" r="15" fill="blue" stroke-width="2" stroke="black" />
</svg>